<svg width="38" height="27" viewBox="0 0 38 27" fill="none" xmlns="http://www.w3.org/2000/svg">
<path d="M12.1255 26.504C19.3255 26.504 23.8255 20.528 23.8255 13.4C23.8255 6.2 19.3615 0.295998 12.1975 0.295998C5.03348 0.295998 0.497484 6.272 0.497484 13.4C0.497484 20.6 4.92548 26.504 12.1255 26.504ZM12.1975 20.312C9.38949 20.312 7.51748 17.432 7.51748 13.4C7.51748 9.296 9.35348 6.488 12.1255 6.488C14.8975 6.488 16.8055 9.404 16.8055 13.4C16.8055 17.468 15.0055 20.312 12.1975 20.312ZM30.659 26H37.535V0.619998H32.459L25.079 2.708L26.411 8.108L30.659 7.136V26Z" fill="#222222" fill-opacity="0.2"/>
</svg>
