<svg width="47" height="27" viewBox="0 0 47 27" fill="none" xmlns="http://www.w3.org/2000/svg">
<path d="M12.3989 26.504C19.5989 26.504 24.0989 20.528 24.0989 13.4C24.0989 6.2 19.6349 0.295998 12.4709 0.295998C5.30692 0.295998 0.770922 6.272 0.770922 13.4C0.770922 20.6 5.19892 26.504 12.3989 26.504ZM12.4709 20.312C9.66292 20.312 7.79092 17.432 7.79092 13.4C7.79092 9.296 9.62692 6.488 12.3989 6.488C15.1709 6.488 17.0789 9.404 17.0789 13.4C17.0789 17.468 15.2789 20.312 12.4709 20.312ZM26.4282 26H46.3722V20.312H35.9682L40.2882 17.288C44.0682 14.624 46.1202 12.5 46.1202 8.468C46.1202 3.644 42.3402 0.368 36.8322 0.368C31.9362 0.368 29.2722 2.276 26.5722 5.768L31.2882 9.692C33.2682 7.424 34.6002 6.452 36.2922 6.452C37.9842 6.452 39.1002 7.424 39.1002 9.008C39.1002 10.52 38.2362 11.744 35.8602 13.544L26.4282 20.744V26Z" fill="#222222" fill-opacity="0.2"/>
</svg>
