<svg width="46" height="27" viewBox="0 0 46 27" fill="none" xmlns="http://www.w3.org/2000/svg">
<path d="M11.6274 26.504C18.8274 26.504 23.3274 20.528 23.3274 13.4C23.3274 6.2 18.8634 0.295998 11.6994 0.295998C4.53544 0.295998 -0.000562459 6.272 -0.000562459 13.4C-0.000562459 20.6 4.42744 26.504 11.6274 26.504ZM11.6994 20.312C8.89144 20.312 7.01944 17.432 7.01944 13.4C7.01944 9.296 8.85544 6.488 11.6274 6.488C14.3994 6.488 16.3074 9.404 16.3074 13.4C16.3074 17.468 14.5074 20.312 11.6994 20.312ZM35.4932 26.504C41.1092 26.504 45.2132 23.228 45.2132 18.116C45.2132 13.76 42.2972 11.744 38.6972 10.952L44.7092 5.804V0.799998H26.4932V6.452H36.1412L30.3452 11.672L31.3532 15.308H34.3052C36.9332 15.308 38.4092 16.28 38.4092 17.9C38.4092 19.52 37.1492 20.528 35.1692 20.528C32.8652 20.528 30.9572 19.484 29.1572 17.648L24.7652 22.04C27.2132 24.74 30.6332 26.504 35.4932 26.504Z" fill="#222222" fill-opacity="0.2"/>
</svg>
